# xmcd
#
# Track frame offsets:
#	150
#	11957
#	26054
#	43595
#	59614
#	76389
#	90020
#	104421
#	120531
#	134530
#	149430
#	164812
#	177709
#	194022
#	210867
#	227515
#	244206
#	260003
#	273533
#	287022
#	304110
#
# Disc length: 4268 seconds
#
# Revision: 0
# Processed by: cddbd v1.5.2PL0 Copyright (c) Steve Scherf et al.
# Submitted via: EasyCDDAExtractor 11.6.0.1
#
DISCID=3d10aa15
DTITLE=Various Artist - Dancefloor Connection 2008 Volume 2 [CD2)
DYEAR=2008
DGENRE=Club
TTITLE0=Pjanoo - Eric Prydz
TTITLE1=Children - Dave Darell
TTITLE2=Man With The Red Face - Mark Knight and Funkagenda
TTITLE3=Toca's Miracle (Richard Durand Remix Edit) - Fragma
TTITLE4=Ole - John Revox
TTITLE5=Boom - Atomic Boy
TTITLE6=Greece 2000 - Those Usual Suspects
TTITLE7=Fiesta Elektronika - Alp Vs Outwork
TTITLE8=No Love - Syke'n'sugarstarr Present Cece Rogers
TTITLE9=E-Samba - Teo Moss and Jeremy Reyes
TTITLE10=Freed From Desire - Steve Forest
TTITLE11=Off The Wall - 1 Plus 1
TTITLE12=Wildberry Tracks 2008 - Future Funk
TTITLE13=Everybody Dance - Afronics
TTITLE14=Looove - Kidz and Palmez
TTITLE15=Body Crash - Buy Now
TTITLE16=I Love My People - Eddie Wata
TTITLE17=Emotion - Mixata
TTITLE18=Mojito Song - Robert Abigail
TTITLE19=Cosina - Rod Debysser
TTITLE20=Cheap Thrills - Herve Featuring Plastic Little
EXTD=
EXTT0=
EXTT1=
EXTT2=
EXTT3=
EXTT4=
EXTT5=
EXTT6=
EXTT7=
EXTT8=
EXTT9=
EXTT10=
EXTT11=
EXTT12=
EXTT13=
EXTT14=
EXTT15=
EXTT16=
EXTT17=
EXTT18=
EXTT19=
EXTT20=
PLAYORDER=
